<?xml version="1.0" encoding="UTF-8" standalone="no"?>
<svg
   xmlns:dc="http://purl.org/dc/elements/1.1/"
   xmlns:cc="http://creativecommons.org/ns#"
   xmlns:rdf="http://www.w3.org/1999/02/22-rdf-syntax-ns#"
   xmlns:svg="http://www.w3.org/2000/svg"
   xmlns="http://www.w3.org/2000/svg"
   xmlns:sodipodi="http://sodipodi.sourceforge.net/DTD/sodipodi-0.dtd"
   xmlns:inkscape="http://www.inkscape.org/namespaces/inkscape"
   sodipodi:docname="label.svg"
   inkscape:version="1.0 (4035a4fb49, 2020-05-01)"
   width="70.476974mm"
   height="28mm"
   viewBox="0 0 70.476974 28"
   version="1.1"
   id="svg8">
  <defs
     id="defs2" />
  <sodipodi:namedview
     fit-margin-bottom="0"
     fit-margin-right="0"
     fit-margin-left="0"
     fit-margin-top="0"
     inkscape:window-maximized="1"
     inkscape:window-y="0"
     inkscape:window-x="0"
     inkscape:window-height="980"
     inkscape:window-width="1920"
     showgrid="false"
     inkscape:document-rotation="0"
     inkscape:current-layer="g876"
     inkscape:document-units="mm"
     inkscape:cy="122.36327"
     inkscape:cx="146.37091"
     inkscape:zoom="1.76768"
     inkscape:pageshadow="2"
     inkscape:pageopacity="0.0"
     borderopacity="1.0"
     bordercolor="#666666"
     pagecolor="#ffffff"
     id="base" />
  <metadata
     id="metadata5">
    <rdf:RDF>
      <cc:Work
         rdf:about="">
        <dc:format>image/svg+xml</dc:format>
        <dc:type
           rdf:resource="http://purl.org/dc/dcmitype/StillImage" />
        <dc:title></dc:title>
      </cc:Work>
    </rdf:RDF>
  </metadata>
  <g
     transform="translate(50.242567,5.1345939)"
     id="layer1"
     inkscape:groupmode="layer"
     inkscape:label="Ebene 1">
    <g
       style="stroke-width:5.80835"
       transform="matrix(0.17216587,0,0,0.17216587,-27.548841,-1.4503741)"
       id="g876">
      <text
         xml:space="preserve"
         style="font-style:normal;font-variant:normal;font-weight:normal;font-stretch:normal;font-size:25.4px;line-height:1.25;font-family:sans-serif;-inkscape-font-specification:sans-serif;letter-spacing:0px;word-spacing:0px;fill:#000000;fill-opacity:1;stroke:none;stroke-width:1.53679"
         x="19.895657"
         y="30.221836"
         id="text835"><tspan
           sodipodi:role="line"
           id="tspan833"
           x="19.895657"
           y="30.221836"
           style="font-style:normal;font-variant:normal;font-weight:bold;font-stretch:normal;font-family:'Roboto Mono';-inkscape-font-specification:'Roboto Mono Bold';stroke-width:1.53679">Alturia Magswitch</tspan><tspan
           sodipodi:role="line"
           x="19.895657"
           y="62.219883"
           style="font-style:normal;font-variant:normal;font-weight:normal;font-stretch:normal;font-family:'Roboto Mono';-inkscape-font-specification:'Roboto Mono';stroke-width:1.53679"
           id="tspan837">Voltage: 3-20 V</tspan><tspan
           sodipodi:role="line"
           x="19.895657"
           y="94.217926"
           style="font-style:normal;font-variant:normal;font-weight:normal;font-stretch:normal;font-family:'Roboto Mono';-inkscape-font-specification:'Roboto Mono';stroke-width:1.53679"
           id="tspan839">CC-BY-SA 4.0</tspan></text>
      <g
         id="g854"
         transform="matrix(1.002948,0,0,1.002948,-131.81315,-21.399246)"
         inkscape:label="QR Code: https://github.com/rckTom/alturia-magswitch"
         style="stroke-width:1.53227">
        <rect
           id="rect848"
           style="fill:#ffffff;stroke:none;stroke-width:0.404222"
           height="148"
           width="148"
           y="0"
           x="0" />
        <g
           id="g852"
           style="fill:#000000;stroke:none;stroke-width:0.404222">
          <path
             id="path850"
             d="m 123.6,132 h -3.2 c -0.22091,0 -0.4,-0.17909 -0.4,-0.4 v -3.2 c 0,-0.22091 -0.17909,-0.4 -0.4,-0.4 H 116 v -3.6 c 0,-0.22091 -0.17909,-0.4 -0.4,-0.4 h -3.2 c -0.22091,0 -0.4,0.17909 -0.4,0.4 v 3.2 c 0,0.22091 0.17909,0.4 0.4,0.4 h 3.6 v 3.6 c 0,0.22091 -0.17909,0.4 -0.4,0.4 h -11.2 c -0.22091,0 -0.4,-0.17909 -0.4,-0.4 v -7.2 c 0,-0.22091 -0.17909,-0.4 -0.4,-0.4 H 92 v -11.6 c 0,-0.22091 -0.179086,-0.4 -0.4,-0.4 h -3.2 c -0.220914,0 -0.4,-0.17909 -0.4,-0.4 v -3.2 c 0,-0.22091 0.179086,-0.4 0.4,-0.4 h 3.2 c 0.220914,0 0.4,-0.17909 0.4,-0.4 V 104 h 3.6 c 0.220914,0 0.4,-0.17909 0.4,-0.4 v -3.2 C 96,100.17909 95.820914,100 95.6,100 H 92 V 96.4 C 92,96.179086 92.179086,96 92.4,96 h 3.2 C 95.820914,96 96,95.820914 96,95.6 V 92 h 3.6 c 0.220914,0 0.4,0.179086 0.4,0.4 v 3.2 c 0,0.220914 0.17909,0.4 0.4,0.4 h 3.2 c 0.22091,0 0.4,-0.179086 0.4,-0.4 v -3.2 c 0,-0.220914 0.17909,-0.4 0.4,-0.4 h 3.2 c 0.22091,0 0.4,0.179086 0.4,0.4 v 3.2 c 0,0.220914 0.17909,0.4 0.4,0.4 h 7.2 c 0.22091,0 0.4,0.179086 0.4,0.4 v 3.2 c 0,0.220914 0.17909,0.4 0.4,0.4 h 3.6 v 3.6 c 0,0.22091 0.17909,0.4 0.4,0.4 h 3.2 c 0.22091,0 0.4,0.17909 0.4,0.4 v 3.6 h -7.6 c -0.22091,0 -0.4,0.17909 -0.4,0.4 v 3.2 c 0,0.22091 0.17909,0.4 0.4,0.4 h 3.2 c 0.22091,0 0.4,0.17909 0.4,0.4 v 3.2 c 0,0.22091 0.17909,0.4 0.4,0.4 h 3.6 v 3.6 c 0,0.22091 0.17909,0.4 0.4,0.4 h 3.6 v 4 h -3.6 c -0.22091,0 -0.4,0.17909 -0.4,0.4 v 7.2 c 0,0.22091 -0.17909,0.4 -0.4,0.4 z m -28,0 H 92.4 C 92.179086,132 92,131.82091 92,131.6 V 128 h 3.6 c 0.220914,0 0.4,0.17909 0.4,0.4 v 3.2 c 0,0.22091 -0.179086,0.4 -0.4,0.4 z m -8,0 H 76.4 C 76.179086,132 76,131.82091 76,131.6 V 128 h 12 v 3.6 c 0,0.22091 -0.179086,0.4 -0.4,0.4 z m -20,0 H 56.4 c -0.220914,0 -0.4,-0.17909 -0.4,-0.4 v -7.2 C 56,124.17909 55.820914,124 55.6,124 H 52 v -3.6 c 0,-0.22091 0.179086,-0.4 0.4,-0.4 h 3.2 c 0.220914,0 0.4,-0.17909 0.4,-0.4 v -3.2 c 0,-0.22091 0.179086,-0.4 0.4,-0.4 H 60 v 3.6 c 0,0.22091 0.179086,0.4 0.4,0.4 H 68 v 3.6 c 0,0.22091 -0.179086,0.4 -0.4,0.4 h -3.2 c -0.220914,0 -0.4,0.17909 -0.4,0.4 v 3.2 c 0,0.22091 0.179086,0.4 0.4,0.4 h 3.2 c 0.220914,0 0.4,0.17909 0.4,0.4 v 3.2 c 0,0.22091 -0.179086,0.4 -0.4,0.4 z m -16,0 h -3.2 c -0.220914,0 -0.4,-0.17909 -0.4,-0.4 v -7.2 c 0,-0.22091 0.179086,-0.4 0.4,-0.4 H 52 v 7.6 c 0,0.22091 -0.179086,0.4 -0.4,0.4 z m -8,0 H 16.4 c -0.220914,0 -0.4,-0.17909 -0.4,-0.4 v -27.2 c 0,-0.22091 0.179086,-0.4 0.4,-0.4 h 27.2 c 0.220914,0 0.4,0.17909 0.4,0.4 v 27.2 c 0,0.22091 -0.179086,0.4 -0.4,0.4 z m 88,-4 h -3.2 c -0.22091,0 -0.4,-0.17909 -0.4,-0.4 V 124 h 3.6 c 0.22091,0 0.4,0.17909 0.4,0.4 v 3.2 c 0,0.22091 -0.17909,0.4 -0.4,0.4 z m -40,0 H 88 v -3.6 c 0,-0.22091 0.179086,-0.4 0.4,-0.4 H 92 v 4 z m -16,0 h -3.2 c -0.220914,0 -0.4,-0.17909 -0.4,-0.4 v -3.2 c 0,-0.22091 0.179086,-0.4 0.4,-0.4 H 76 v 4 z M 40,127.6 V 108.4 C 40,108.17909 39.820914,108 39.6,108 H 20.4 c -0.220914,0 -0.4,0.17909 -0.4,0.4 v 19.2 c 0,0.22091 0.179086,0.4 0.4,0.4 h 19.2 c 0.220914,0 0.4,-0.17909 0.4,-0.4 z M 83.6,124 H 76 V 112.4 C 76,112.17909 75.820914,112 75.6,112 H 72.4 C 72.179086,112 72,111.82091 72,111.6 V 108 h 3.6 c 0.220914,0 0.4,-0.17909 0.4,-0.4 v -3.2 C 76,104.17909 75.820914,104 75.6,104 H 72 v -3.6 C 72,100.17909 71.820914,100 71.6,100 H 68 V 96.4 C 68,96.179086 68.179086,96 68.4,96 h 7.2 c 0.220914,0 0.4,0.179086 0.4,0.4 v 3.2 c 0,0.220914 0.179086,0.4 0.4,0.4 h 3.2 c 0.220914,0 0.4,0.17909 0.4,0.4 v 15.2 c 0,0.22091 0.179086,0.4 0.4,0.4 h 3.2 c 0.220914,0 0.4,0.17909 0.4,0.4 v 7.2 c 0,0.22091 -0.179086,0.4 -0.4,0.4 z m -48,0 H 24.4 c -0.220914,0 -0.4,-0.17909 -0.4,-0.4 v -11.2 c 0,-0.22091 0.179086,-0.4 0.4,-0.4 h 11.2 c 0.220914,0 0.4,0.17909 0.4,0.4 v 11.2 c 0,0.22091 -0.179086,0.4 -0.4,0.4 z m 96,-4 H 128 v -4 h 3.6 c 0.22091,0 0.4,0.17909 0.4,0.4 v 3.2 c 0,0.22091 -0.17909,0.4 -0.4,0.4 z M 116,119.6 v -3.2 c 0,-0.22091 -0.17909,-0.4 -0.4,-0.4 h -11.2 c -0.22091,0 -0.4,0.17909 -0.4,0.4 v 3.2 c 0,0.22091 0.17909,0.4 0.4,0.4 h 11.2 c 0.22091,0 0.4,-0.17909 0.4,-0.4 z M 71.6,120 H 68 v -4 h 3.6 c 0.220914,0 0.4,0.17909 0.4,0.4 v 3.2 c 0,0.22091 -0.179086,0.4 -0.4,0.4 z m 56,-4 H 124 v -8 h 7.6 c 0.22091,0 0.4,0.17909 0.4,0.4 v 3.2 c 0,0.22091 -0.17909,0.4 -0.4,0.4 h -3.2 c -0.22091,0 -0.4,0.17909 -0.4,0.4 v 3.6 z m -60,0 H 60 v -4 h 3.6 c 0.220914,0 0.4,-0.17909 0.4,-0.4 v -3.2 c 0,-0.22091 0.179086,-0.4 0.4,-0.4 H 68 v 8 z m 44.4,-4.4 v -11.2 c 0,-0.22091 -0.17909,-0.4 -0.4,-0.4 h -11.2 c -0.22091,0 -0.4,0.17909 -0.4,0.4 v 11.2 c 0,0.22091 0.17909,0.4 0.4,0.4 h 11.2 c 0.22091,0 0.4,-0.17909 0.4,-0.4 z M 59.6,112 H 56.4 C 56.179086,112 56,111.82091 56,111.6 V 108 h 3.6 c 0.220914,0 0.4,0.17909 0.4,0.4 v 3.6 z m -8,0 H 48.4 C 48.179086,112 48,111.82091 48,111.6 V 96.4 C 48,96.179086 48.179086,96 48.4,96 h 3.2 C 51.820914,96 52,95.820914 52,95.6 V 92.4 C 52,92.179086 52.179086,92 52.4,92 H 64 v 8 H 60.4 C 60.179086,100 60,99.820914 60,99.6 V 96.4 C 60,96.179086 59.820914,96 59.6,96 H 56.4 C 56.179086,96 56,96.179086 56,96.4 v 3.2 c 0,0.220914 -0.179086,0.4 -0.4,0.4 h -3.2 c -0.220914,0 -0.4,0.17909 -0.4,0.4 v 3.2 c 0,0.22091 0.179086,0.4 0.4,0.4 h 3.2 c 0.220914,0 0.4,0.17909 0.4,0.4 v 3.6 h -3.6 c -0.220914,0 -0.4,0.17909 -0.4,0.4 v 3.2 c 0,0.22091 -0.179086,0.4 -0.4,0.4 z m 56,-4 h -3.2 c -0.22091,0 -0.4,-0.17909 -0.4,-0.4 v -3.2 c 0,-0.22091 0.17909,-0.4 0.4,-0.4 h 3.2 c 0.22091,0 0.4,0.17909 0.4,0.4 v 3.2 c 0,0.22091 -0.17909,0.4 -0.4,0.4 z m -36,0 H 68 v -4 h 4 v 4 z m 20,-4 H 84.4 C 84.179086,104 84,103.82091 84,103.6 V 96.4 C 84,96.179086 84.179086,96 84.4,96 h 3.2 c 0.220914,0 0.4,0.179086 0.4,0.4 v 3.2 c 0,0.220914 0.179086,0.4 0.4,0.4 H 92 v 4 z m -24,0 H 64.4 C 64.179086,104 64,103.82091 64,103.6 V 100 h 4 v 4 z m 64,-4 H 120 v -3.6 c 0,-0.220914 0.17909,-0.4 0.4,-0.4 h 11.2 c 0.22091,0 0.4,0.179086 0.4,0.4 v 3.2 c 0,0.220914 -0.17909,0.4 -0.4,0.4 z m -88,0 H 28.4 C 28.179086,100 28,99.820914 28,99.6 V 96.4 C 28,96.179086 28.179086,96 28.4,96 h 3.2 C 31.820914,96 32,95.820914 32,95.6 V 92.4 C 32,92.179086 32.179086,92 32.4,92 H 36 v 3.6 c 0,0.220914 0.179086,0.4 0.4,0.4 h 7.2 c 0.220914,0 0.4,0.179086 0.4,0.4 v 3.2 c 0,0.220914 -0.179086,0.4 -0.4,0.4 z m -24,0 H 16.4 C 16.179086,100 16,99.820914 16,99.6 V 84.4 C 16,84.179086 16.179086,84 16.4,84 h 3.2 C 19.820914,84 20,83.820914 20,83.6 V 80.4 C 20,80.179086 20.179086,80 20.4,80 h 3.2 C 23.820914,80 24,79.820914 24,79.6 V 76.4 C 24,76.179086 24.179086,76 24.4,76 h 3.2 C 27.820914,76 28,75.820914 28,75.6 V 68.4 C 28,68.179086 27.820914,68 27.6,68 H 24.4 C 24.179086,68 24,68.179086 24,68.4 v 3.2 C 24,71.820914 23.820914,72 23.6,72 H 16.4 C 16.179086,72 16,71.820914 16,71.6 V 68.4 C 16,68.179086 16.179086,68 16.4,68 h 3.2 C 19.820914,68 20,67.820914 20,67.6 V 64.4 C 20,64.179086 20.179086,64 20.4,64 h 7.2 C 27.820914,64 28,63.820914 28,63.6 V 60.4 C 28,60.179086 27.820914,60 27.6,60 H 24.4 C 24.179086,60 24,59.820914 24,59.6 V 52 H 35.6 C 35.820914,52 36,51.820914 36,51.6 V 48.4 C 36,48.179086 36.179086,48 36.4,48 h 11.2 c 0.220914,0 0.4,0.179086 0.4,0.4 v 3.2 C 48,51.820914 47.820914,52 47.6,52 H 40.4 C 40.179086,52 40,52.179086 40,52.4 v 3.2 c 0,0.220914 0.179086,0.4 0.4,0.4 h 3.2 c 0.220914,0 0.4,0.179086 0.4,0.4 V 60 H 40.4 C 40.179086,60 40,60.179086 40,60.4 v 3.2 c 0,0.220914 0.179086,0.4 0.4,0.4 h 3.2 C 43.820914,64 44,63.820914 44,63.6 V 60 h 8 v 3.6 c 0,0.220914 0.179086,0.4 0.4,0.4 h 3.2 C 55.820914,64 56,63.820914 56,63.6 V 60 h 3.6 C 59.820914,60 60,59.820914 60,59.6 V 56 H 75.6 C 75.820914,56 76,55.820914 76,55.6 V 52 h 3.6 c 0.220914,0 0.4,0.179086 0.4,0.4 v 3.2 c 0,0.220914 0.179086,0.4 0.4,0.4 H 84 V 68 H 80 V 60.4 C 80,60.179086 79.820914,60 79.6,60 H 76.4 C 76.179086,60 76,60.179086 76,60.4 v 3.2 C 76,63.820914 75.820914,64 75.6,64 H 72.4 C 72.179086,64 72,63.820914 72,63.6 V 60.4 C 72,60.179086 71.820914,60 71.6,60 H 64.4 C 64.179086,60 64,60.179086 64,60.4 v 3.2 C 64,63.820914 63.820914,64 63.6,64 H 60.4 C 60.179086,64 60,64.179086 60,64.4 V 75.6 C 60,75.820914 59.820914,76 59.6,76 H 52 V 72.4 C 52,72.179086 52.179086,72 52.4,72 h 3.2 C 55.820914,72 56,71.820914 56,71.6 V 68.4 C 56,68.179086 55.820914,68 55.6,68 H 40.4 C 40.179086,68 40,68.179086 40,68.4 V 72 H 36 V 60.4 C 36,60.179086 35.820914,60 35.6,60 H 32.4 C 32.179086,60 32,60.179086 32,60.4 v 11.2 c 0,0.220914 0.179086,0.4 0.4,0.4 H 36 v 3.6 c 0,0.220914 0.179086,0.4 0.4,0.4 H 40 v 4 H 36.4 C 36.179086,80 36,80.179086 36,80.4 v 3.2 c 0,0.220914 0.179086,0.4 0.4,0.4 H 40 v 3.6 c 0,0.220914 0.179086,0.4 0.4,0.4 h 3.2 c 0.220914,0 0.4,0.179086 0.4,0.4 v 3.2 C 44,91.820914 43.820914,92 43.6,92 H 36 V 88.4 C 36,88.179086 35.820914,88 35.6,88 H 32.4 C 32.179086,88 32,87.820914 32,87.6 V 84.4 C 32,84.179086 31.820914,84 31.6,84 H 28.4 C 28.179086,84 28,84.179086 28,84.4 v 7.2 C 28,91.820914 27.820914,92 27.6,92 H 20.4 C 20.179086,92 20,92.179086 20,92.4 v 7.2 c 0,0.220914 -0.179086,0.4 -0.4,0.4 z m 112,-8 h -3.2 C 128.17909,92 128,91.820914 128,91.6 V 88.4 C 128,88.179086 127.82091,88 127.6,88 H 120 V 84.4 C 120,84.179086 119.82091,84 119.6,84 H 116 v -4 h 3.6 c 0.22091,0 0.4,-0.179086 0.4,-0.4 v -3.2 c 0,-0.220914 -0.17909,-0.4 -0.4,-0.4 h -3.2 c -0.22091,0 -0.4,0.179086 -0.4,0.4 V 80 h -3.6 c -0.22091,0 -0.4,0.179086 -0.4,0.4 v 3.2 c 0,0.220914 0.17909,0.4 0.4,0.4 h 3.6 v 3.6 c 0,0.220914 0.17909,0.4 0.4,0.4 h 3.6 v 3.6 c 0,0.220914 -0.17909,0.4 -0.4,0.4 h -7.2 c -0.22091,0 -0.4,-0.179086 -0.4,-0.4 v -3.2 c 0,-0.220914 -0.17909,-0.4 -0.4,-0.4 h -7.2 C 104.17909,88 104,87.820914 104,87.6 V 84 h 3.6 c 0.22091,0 0.4,-0.179086 0.4,-0.4 v -7.2 c 0,-0.220914 0.17909,-0.4 0.4,-0.4 h 3.2 c 0.22091,0 0.4,-0.179086 0.4,-0.4 V 72.4 C 112,72.179086 111.82091,72 111.6,72 H 104 v -8 h 7.6 c 0.22091,0 0.4,0.179086 0.4,0.4 v 3.2 c 0,0.220914 0.17909,0.4 0.4,0.4 h 3.2 c 0.22091,0 0.4,0.179086 0.4,0.4 v 3.2 c 0,0.220914 0.17909,0.4 0.4,0.4 h 7.6 v 11.6 c 0,0.220914 0.17909,0.4 0.4,0.4 h 7.2 c 0.22091,0 0.4,0.179086 0.4,0.4 v 7.2 c 0,0.220914 -0.17909,0.4 -0.4,0.4 z m -36,0 H 84.4 C 84.179086,92 84,91.820914 84,91.6 V 88 h 3.6 C 87.820914,88 88,87.820914 88,87.6 V 84 h 3.6 C 91.820914,84 92,83.820914 92,83.6 V 76.4 C 92,76.179086 92.179086,76 92.4,76 H 96 v 16 z m -16,0 H 76.4 C 76.179086,92 76,91.820914 76,91.6 V 88.4 C 76,88.179086 75.820914,88 75.6,88 H 72 V 84.4 C 72,84.179086 71.820914,84 71.6,84 H 64.4 C 64.179086,84 64,83.820914 64,83.6 V 76.4 C 64,76.179086 64.179086,76 64.4,76 h 3.2 c 0.220914,0 0.4,0.179086 0.4,0.4 v 3.2 c 0,0.220914 0.179086,0.4 0.4,0.4 H 80 v 3.6 c 0,0.220914 0.179086,0.4 0.4,0.4 H 84 v 4 H 80.4 C 80.179086,88 80,88.179086 80,88.4 v 3.2 c 0,0.220914 -0.179086,0.4 -0.4,0.4 z m -8,0 H 64 V 88.4 C 64,88.179086 64.179086,88 64.4,88 H 72 v 3.6 c 0,0.220914 -0.179086,0.4 -0.4,0.4 z m -20,-4 H 48.4 C 48.179086,88 48,87.820914 48,87.6 V 84.4 C 48,84.179086 48.179086,84 48.4,84 h 3.2 c 0.220914,0 0.4,0.179086 0.4,0.4 v 3.2 c 0,0.220914 -0.179086,0.4 -0.4,0.4 z m 52,-4 h -3.2 c -0.22091,0 -0.4,-0.179086 -0.4,-0.4 v -3.2 c 0,-0.220914 0.17909,-0.4 0.4,-0.4 h 3.2 c 0.22091,0 0.4,0.179086 0.4,0.4 V 84 Z m -16,0 H 84 v -4 h 3.6 c 0.220914,0 0.4,0.179086 0.4,0.4 V 84 Z m -28,0 H 56.4 C 56.179086,84 56,83.820914 56,83.6 V 80.4 C 56,80.179086 56.179086,80 56.4,80 h 3.2 c 0.220914,0 0.4,0.179086 0.4,0.4 v 3.2 c 0,0.220914 -0.179086,0.4 -0.4,0.4 z m -16,0 H 40 v -4 h 4 v 3.6 c 0,0.220914 -0.179086,0.4 -0.4,0.4 z m 88,-4 h -3.2 c -0.22091,0 -0.4,-0.179086 -0.4,-0.4 v -3.2 c 0,-0.220914 0.17909,-0.4 0.4,-0.4 h 3.2 c 0.22091,0 0.4,0.179086 0.4,0.4 v 3.2 c 0,0.220914 -0.17909,0.4 -0.4,0.4 z m -48,0 H 80 V 76.4 C 80,76.179086 79.820914,76 79.6,76 H 76.4 C 76.179086,76 76,75.820914 76,75.6 V 68.4 C 76,68.179086 76.179086,68 76.4,68 H 80 v 3.6 c 0,0.220914 0.179086,0.4 0.4,0.4 h 3.2 C 83.820914,72 84,71.820914 84,71.6 V 68 h 3.6 C 87.820914,68 88,67.820914 88,67.6 V 64.4 C 88,64.179086 88.179086,64 88.4,64 h 3.2 C 91.820914,64 92,63.820914 92,63.6 V 60.4 C 92,60.179086 92.179086,60 92.4,60 h 3.2 c 0.220914,0 0.4,0.179086 0.4,0.4 v 7.2 c 0,0.220914 0.179086,0.4 0.4,0.4 h 3.2 c 0.220914,0 0.4,0.179086 0.4,0.4 v 3.2 c 0,0.220914 0.17909,0.4 0.4,0.4 h 3.6 v 3.6 c 0,0.220914 -0.17909,0.4 -0.4,0.4 H 96 V 72.4 C 96,72.179086 95.820914,72 95.6,72 H 88.4 C 88.179086,72 88,72.179086 88,72.4 v 3.2 C 88,75.820914 87.820914,76 87.6,76 H 84.4 C 84.179086,76 84,76.179086 84,76.4 V 80 Z m -32,0 H 44 V 76.4 C 44,76.179086 43.820914,76 43.6,76 H 40 v -4 h 7.6 c 0.220914,0 0.4,0.179086 0.4,0.4 v 3.2 c 0,0.220914 0.179086,0.4 0.4,0.4 H 52 v 3.6 c 0,0.220914 -0.179086,0.4 -0.4,0.4 z m 80,-8 H 124 v -3.6 c 0,-0.220914 0.17909,-0.4 0.4,-0.4 h 3.2 c 0.22091,0 0.4,-0.179086 0.4,-0.4 v -3.2 c 0,-0.220914 0.17909,-0.4 0.4,-0.4 h 3.2 c 0.22091,0 0.4,0.179086 0.4,0.4 v 7.2 c 0,0.220914 -0.17909,0.4 -0.4,0.4 z m -60,0 H 64.4 C 64.179086,72 64,71.820914 64,71.6 V 68.4 C 64,68.179086 64.179086,68 64.4,68 h 7.2 c 0.220914,0 0.4,0.179086 0.4,0.4 v 3.2 c 0,0.220914 -0.179086,0.4 -0.4,0.4 z m 48,-8 h -3.2 C 116.17909,64 116,63.820914 116,63.6 V 60 h 3.6 c 0.22091,0 0.4,0.179086 0.4,0.4 v 3.2 c 0,0.220914 -0.17909,0.4 -0.4,0.4 z m -16,0 h -3.2 c -0.22091,0 -0.4,-0.179086 -0.4,-0.4 v -3.2 c 0,-0.220914 0.17909,-0.4 0.4,-0.4 h 3.2 c 0.22091,0 0.4,0.179086 0.4,0.4 V 64 Z m 12,-4 h -3.2 c -0.22091,0 -0.4,-0.179086 -0.4,-0.4 v -3.2 c 0,-0.220914 -0.17909,-0.4 -0.4,-0.4 h -3.2 c -0.22091,0 -0.4,-0.179086 -0.4,-0.4 v -3.2 c 0,-0.220914 0.17909,-0.4 0.4,-0.4 h 3.2 c 0.22091,0 0.4,-0.179086 0.4,-0.4 v -3.2 c 0,-0.220914 0.17909,-0.4 0.4,-0.4 h 7.2 c 0.22091,0 0.4,0.179086 0.4,0.4 V 52 h -3.6 c -0.22091,0 -0.4,0.179086 -0.4,0.4 V 60 Z m -60,0 H 52 V 56.4 C 52,56.179086 52.179086,56 52.4,56 H 56 v 4 z m 72,-4 h -7.2 C 120.17909,56 120,55.820914 120,55.6 V 52 h 7.6 c 0.22091,0 0.4,0.179086 0.4,0.4 v 3.2 c 0,0.220914 -0.17909,0.4 -0.4,0.4 z m -24,0 h -3.2 c -0.22091,0 -0.4,-0.179086 -0.4,-0.4 v -3.2 c 0,-0.220914 0.17909,-0.4 0.4,-0.4 h 3.2 c 0.22091,0 0.4,0.179086 0.4,0.4 v 3.2 c 0,0.220914 -0.17909,0.4 -0.4,0.4 z m -8,0 H 84 v -8 h 3.6 c 0.220914,0 0.4,0.179086 0.4,0.4 v 3.2 c 0,0.220914 0.179086,0.4 0.4,0.4 h 7.2 c 0.220914,0 0.4,0.179086 0.4,0.4 v 3.2 c 0,0.220914 -0.179086,0.4 -0.4,0.4 z m -36,0 H 56 V 52.4 C 56,52.179086 55.820914,52 55.6,52 H 52.4 C 52.179086,52 52,51.820914 52,51.6 V 44 h 4 v 3.6 c 0,0.220914 0.179086,0.4 0.4,0.4 h 3.2 c 0.220914,0 0.4,0.179086 0.4,0.4 V 56 Z m -40,0 H 16.4 C 16.179086,56 16,55.820914 16,55.6 V 48.4 C 16,48.179086 16.179086,48 16.4,48 h 7.2 c 0.220914,0 0.4,0.179086 0.4,0.4 V 52 H 20.4 C 20.179086,52 20,52.179086 20,52.4 v 3.2 c 0,0.220914 -0.179086,0.4 -0.4,0.4 z m 56,-4 H 64.4 C 64.179086,52 64,51.820914 64,51.6 V 40.4 C 64,40.179086 64.179086,40 64.4,40 H 68 v 7.6 c 0,0.220914 0.179086,0.4 0.4,0.4 h 3.2 C 71.820914,48 72,47.820914 72,47.6 V 40 h 3.6 c 0.220914,0 0.4,0.179086 0.4,0.4 V 52 Z m 20,-4 H 92.4 C 92.179086,48 92,47.820914 92,47.6 V 44 h 4 v 3.6 c 0,0.220914 -0.179086,0.4 -0.4,0.4 z m -12,0 H 80.4 C 80.179086,48 80,47.820914 80,47.6 V 28 h 8 v 3.6 c 0,0.220914 0.179086,0.4 0.4,0.4 h 3.2 C 91.820914,32 92,31.820914 92,31.6 V 28.4 C 92,28.179086 91.820914,28 91.6,28 H 88 V 24.4 C 88,24.179086 88.179086,24 88.4,24 H 96 v 3.6 c 0,0.220914 0.179086,0.4 0.4,0.4 h 3.2 c 0.220914,0 0.4,0.179086 0.4,0.4 v 15.2 c 0,0.220914 -0.179086,0.4 -0.4,0.4 H 96 V 36.4 C 96,36.179086 95.820914,36 95.6,36 H 88.4 C 88.179086,36 88,36.179086 88,36.4 V 40 H 84.4 C 84.179086,40 84,40.179086 84,40.4 V 48 Z m 48,-4 H 104.4 C 104.17909,44 104,43.820914 104,43.6 V 16.4 c 0,-0.220914 0.17909,-0.4 0.4,-0.4 h 27.2 c 0.22091,0 0.4,0.179086 0.4,0.4 v 27.2 c 0,0.220914 -0.17909,0.4 -0.4,0.4 z m -40,0 H 88.4 C 88.179086,44 88,43.820914 88,43.6 V 40 h 3.6 c 0.220914,0 0.4,0.179086 0.4,0.4 V 44 Z m -32,0 H 56 V 40.4 C 56,40.179086 55.820914,40 55.6,40 H 52 v -4 h 3.6 C 55.820914,36 56,35.820914 56,35.6 V 28.4 C 56,28.179086 55.820914,28 55.6,28 H 52 V 24.4 C 52,24.179086 52.179086,24 52.4,24 h 7.2 C 59.820914,24 60,23.820914 60,23.6 V 20.4 C 60,20.179086 59.820914,20 59.6,20 H 52.4 C 52.179086,20 52,19.820914 52,19.6 V 16.4 C 52,16.179086 52.179086,16 52.4,16 h 11.2 c 0.220914,0 0.4,0.179086 0.4,0.4 v 3.2 c 0,0.220914 0.179086,0.4 0.4,0.4 h 3.2 C 67.820914,20 68,19.820914 68,19.6 V 16.4 C 68,16.179086 68.179086,16 68.4,16 h 7.2 c 0.220914,0 0.4,0.179086 0.4,0.4 v 7.2 c 0,0.220914 0.179086,0.4 0.4,0.4 H 80 v 4 H 72 V 24.4 C 72,24.179086 71.820914,24 71.6,24 H 64.4 C 64.179086,24 64,24.179086 64,24.4 V 32 H 60.4 C 60.179086,32 60,32.179086 60,32.4 v 11.2 c 0,0.220914 -0.179086,0.4 -0.4,0.4 z m -8,0 H 48.4 C 48.179086,44 48,43.820914 48,43.6 V 40.4 C 48,40.179086 48.179086,40 48.4,40 H 52 v 4 z m -8,0 H 16.4 C 16.179086,44 16,43.820914 16,43.6 V 16.4 C 16,16.179086 16.179086,16 16.4,16 h 27.2 c 0.220914,0 0.4,0.179086 0.4,0.4 V 43.6 C 44,43.820914 43.820914,44 43.6,44 Z M 128,39.6 V 20.4 c 0,-0.220914 -0.17909,-0.4 -0.4,-0.4 h -19.2 c -0.22091,0 -0.4,0.179086 -0.4,0.4 v 19.2 c 0,0.220914 0.17909,0.4 0.4,0.4 h 19.2 c 0.22091,0 0.4,-0.179086 0.4,-0.4 z M 71.6,40 H 68 v -4 h 4 v 4 z M 40,39.6 V 20.4 C 40,20.179086 39.820914,20 39.6,20 H 20.4 C 20.179086,20 20,20.179086 20,20.4 v 19.2 c 0,0.220914 0.179086,0.4 0.4,0.4 H 39.6 C 39.820914,40 40,39.820914 40,39.6 Z M 123.6,36 H 112.4 C 112.17909,36 112,35.820914 112,35.6 V 24.4 c 0,-0.220914 0.17909,-0.4 0.4,-0.4 h 11.2 c 0.22091,0 0.4,0.179086 0.4,0.4 v 11.2 c 0,0.220914 -0.17909,0.4 -0.4,0.4 z m -48,0 H 72 v -4 h 3.6 c 0.220914,0 0.4,0.179086 0.4,0.4 v 3.2 c 0,0.220914 -0.179086,0.4 -0.4,0.4 z m -8,0 H 64.4 C 64.179086,36 64,35.820914 64,35.6 V 32 h 4 v 4 z m -16,0 H 48.4 C 48.179086,36 48,35.820914 48,35.6 V 28.4 C 48,28.179086 48.179086,28 48.4,28 H 52 v 8 z m -16,0 H 24.4 C 24.179086,36 24,35.820914 24,35.6 V 24.4 C 24,24.179086 24.179086,24 24.4,24 h 11.2 c 0.220914,0 0.4,0.179086 0.4,0.4 v 11.2 c 0,0.220914 -0.179086,0.4 -0.4,0.4 z m 36,-4 H 68 V 28.4 C 68,28.179086 68.179086,28 68.4,28 H 72 v 4 z m 28,-8 H 96 v -4 h 3.6 c 0.220914,0 0.4,0.179086 0.4,0.4 v 3.2 c 0,0.220914 -0.179086,0.4 -0.4,0.4 z m -16,0 H 80 V 20.4 C 80,20.179086 80.179086,20 80.4,20 H 84 v 3.6 c 0,0.220914 -0.179086,0.4 -0.4,0.4 z m 12,-4 H 92.4 C 92.179086,20 92,19.820914 92,19.6 V 16.4 C 92,16.179086 92.179086,16 92.4,16 h 3.2 c 0.220914,0 0.4,0.179086 0.4,0.4 V 20 Z m -8,0 H 84 V 16.4 C 84,16.179086 84.179086,16 84.4,16 h 3.2 c 0.220914,0 0.4,0.179086 0.4,0.4 v 3.2 c 0,0.220914 -0.179086,0.4 -0.4,0.4 z"
             style="stroke-width:1.53227" />
        </g>
      </g>
      <text
         xml:space="preserve"
         style="font-style:normal;font-variant:normal;font-weight:normal;font-stretch:normal;font-size:21.0461px;line-height:1.25;font-family:sans-serif;-inkscape-font-specification:sans-serif;letter-spacing:0px;word-spacing:0px;fill:#000000;fill-opacity:1;stroke:none;stroke-width:1.53679"
         x="-117.57904"
         y="133.78326"
         id="text864"><tspan
           sodipodi:role="line"
           id="tspan862"
           x="-117.57904"
           y="133.78326"
           style="font-style:normal;font-variant:normal;font-weight:normal;font-stretch:normal;font-size:21.0461px;font-family:'Roboto Mono';-inkscape-font-specification:'Roboto Mono, Normal';font-variant-ligatures:normal;font-variant-caps:normal;font-variant-numeric:normal;font-variant-east-asian:normal;stroke-width:1.53679">https://git.io/JJkK2</tspan></text>
    </g>
  </g>
</svg>
